<svg width="20" height="20" viewBox="0 0 20 20" fill="none" xmlns="http://www.w3.org/2000/svg">
<path d="M5 7.50098C5 7.46842 5.00488 7.4375 5.01465 7.4082C5.02767 7.37565 5.0472 7.34798 5.07324 7.3252C5.12207 7.27637 5.18066 7.25195 5.24902 7.25195C5.31738 7.25195 5.37598 7.27637 5.4248 7.3252L9.75098 11.6465L14.0723 7.3252C14.1211 7.27637 14.1797 7.25195 14.248 7.25195C14.3197 7.25195 14.3799 7.27637 14.4287 7.3252C14.4775 7.37402 14.502 7.43262 14.502 7.50098C14.502 7.56934 14.4775 7.62793 14.4287 7.67676L9.92676 12.1787C9.87793 12.2275 9.81934 12.252 9.75098 12.252C9.68262 12.252 9.62402 12.2275 9.5752 12.1787L5.07324 7.67676C5.0472 7.65397 5.02767 7.62793 5.01465 7.59863C5.00488 7.56608 5 7.53353 5 7.50098Z" fill="black"/>
</svg>
